<?xml version="1.0" encoding="utf-8"?>
<!-- Generator: Adobe Illustrator 23.0.5, SVG Export Plug-In . SVG Version: 6.00 Build 0)  -->
<!DOCTYPE svg PUBLIC "-//W3C//DTD SVG 1.1//EN" "http://www.w3.org/Graphics/SVG/1.1/DTD/svg11.dtd" [
	<!ENTITY ns_extend "http://ns.adobe.com/Extensibility/1.0/">
	<!ENTITY ns_ai "http://ns.adobe.com/AdobeIllustrator/10.0/">
	<!ENTITY ns_graphs "http://ns.adobe.com/Graphs/1.0/">
	<!ENTITY ns_vars "http://ns.adobe.com/Variables/1.0/">
	<!ENTITY ns_imrep "http://ns.adobe.com/ImageReplacement/1.0/">
	<!ENTITY ns_sfw "http://ns.adobe.com/SaveForWeb/1.0/">
	<!ENTITY ns_custom "http://ns.adobe.com/GenericCustomNamespace/1.0/">
	<!ENTITY ns_adobe_xpath "http://ns.adobe.com/XPath/1.0/">
]>
<svg version="1.1" id="Слой_1" xmlns:x="&ns_extend;" xmlns:i="&ns_ai;" xmlns:graph="&ns_graphs;"
	 xmlns="http://www.w3.org/2000/svg" xmlns:xlink="http://www.w3.org/1999/xlink" x="0px" y="0px" viewBox="0 0 494.7416992 202"
	 style="enable-background:new 0 0 494.7416992 202;" xml:space="preserve">
<style type="text/css">
	.st0{fill:#C42F2A;}
	.st1{fill:#FFFFFF;}
	.st2{fill-rule:evenodd;clip-rule:evenodd;fill:#C42F2A;}
	.st3{fill:#1E80B3;}
	.st4{fill:#EDDD3F;}
	.st5{fill:#32834B;}
	.st6{fill:#9470AC;}
</style>
<metadata>
	<sfw  xmlns="&ns_sfw;">
		<slices></slices>
		<sliceSourceBounds  bottomLeftOrigin="true" height="202" width="494.7416992" x="263.711853" y="0"></sliceSourceBounds>
	</sfw>
</metadata>
<g>
	<path class="st0" d="M50.4456978,138.8584747l-0.5311508-6.6013947H39.1616745l-3.2343483,6.6013947H24.0520477
		l19.9128571-35.8672256H57.396965l4.0548935,35.8672256H50.4456978z M48.864727,113.6356201
		c0-1.1345062,0.0481949-1.942955,0.1326866-2.4499054h-0.253479l-0.4706612,1.2551041l-0.9534264,2.1722336l-4.3565674,9.1841812
		h6.4082069l-0.4827614-8.9789047L48.864727,113.6356201z M100.4326477,111.3908005
		c0,2.2569199-0.7844391,4.1274719-2.3894272,5.599762c-1.5809708,1.4843903-3.7773972,2.4862061-6.5652847,3.0050659v0.0965881
		c2.2569199,0.2774887,4.0187912,1.1103134,5.2738953,2.4618225c1.2793045,1.3637924,1.9068527,3.1016541,1.9068527,5.2014923
		c0,2.2688217-0.6154633,4.2359695-1.8705673,5.8893509c-1.2551041,1.6533661-3.1016541,2.9447632-5.5273666,3.8497925
		c-2.4257126,0.9173279-5.3704758,1.3638-8.8581161,1.3638H65.6035309l7.5909119-35.8672256H87.95401
		c4.2117844,0,7.3497238,0.6880341,9.413269,2.0516357C99.4189224,106.4066772,100.4326477,108.5307159,100.4326477,111.3908005
		L100.4326477,111.3908005z M88.9798279,113.4908295c0-1.1948013-0.3379745-2.0395432-1.0258179-2.5344009
		c-0.6636581-0.4948578-1.8344574-0.7362366-3.4997406-0.7362366h-1.9913406l-1.4361801,6.7582779h3.3670349
		c1.3396072,0,2.4378204-0.3377838,3.2946472-1.0258255C88.5454559,115.2768936,88.9798279,114.4561615,88.9798279,113.4908295
		L88.9798279,113.4908295z M87.1695633,127.5383453c0-0.9895248-0.3137741-1.7741547-0.9413223-2.3775101
		c-0.6396484-0.6033554-1.5085831-0.9050369-2.6307983-0.9050369h-4.0550842l-1.6533661,7.3253479h3.8136902
		c1.7136688,0,3.0532684-0.349884,4.0186005-1.0740204C86.6989059,129.7710724,87.1695633,128.7813568,87.1695633,127.5383453
		L87.1695633,127.5383453z M134.6464996,111.4512863h-10.1616135l-5.7806625,27.4071884h-10.861557l5.7806625-27.4071884
		h-10.0287323l1.7739716-8.4600372h31.0519028L134.6464996,111.4512863z M169.8014832,118.1129761
		c0,3.9342957-0.868927,7.6030121-2.594696,10.9821472c-1.725769,3.3912354-4.1151886,5.9617462-7.1805573,7.7238007
		c-3.0532532,1.7739716-6.7100677,2.6549988-10.9218445,2.6549988c-3.1982574,0-5.9498444-0.6517487-8.266861-1.9550476
		c-2.3051147-1.3153992-4.0790863-3.1619568-5.2980957-5.5513763c-1.2066956-2.3775177-1.8221588-5.1049042-1.8221588-8.1823654
		c0-3.9584885,0.8808441-7.6272049,2.6307983-10.9942474c1.7499695-3.3791428,4.1635742-5.9498367,7.2289429-7.7359009
		s6.6255798-2.6791916,10.680481-2.6791916c4.8153229,0,8.6167297,1.3998947,11.3925171,4.1998672
		C168.4136963,109.3754501,169.8014832,113.2252579,169.8014832,118.1129761L169.8014832,118.1129761z M158.312561,118.4628525
		c0-2.1843338-0.4587555-3.8498001-1.3637848-4.9962158c-0.9052277-1.1343231-2.2085266-1.7136688-3.9221954-1.7136688
		c-1.556778,0-2.920578,0.5309601-4.0911865,1.5809708c-1.1706085,1.0498276-2.0879364,2.4981155-2.7394867,4.3686676
		c-0.6638489,1.8584595-1.0018158,3.8016052-1.0018158,5.8411484c0,2.2204361,0.4708557,3.8980026,1.3759003,5.0204086
		c0.9292145,1.1224213,2.1964264,1.6894836,3.8134918,1.6894836c1.5085907,0,2.848175-0.4706726,4.0187988-1.3999023
		c1.1947937-0.9413223,2.1361237-2.3533173,2.848175-4.2720718
		C157.9624939,122.6748199,158.312561,120.6352768,158.312561,118.4628525L158.312561,118.4628525z"/>
	<path class="st1" d="M440.6393738,106.2618866c0.1689758-0.4466553,0.4222717-0.9173203,0.7481384-1.3998947
		c0.3258667-0.4827576,0.7965393-0.9294128,1.4000854-1.3155899c0.603363-0.3982697,1.4119873-0.7360458,2.4136047-0.9895248
		c1.0016174-0.2655792,2.2567444-0.3861694,3.7774048-0.3861694c1.5205078,0,2.7876892,0.1205902,3.7893372,0.3861694
		c1.0018311,0.253479,1.7983398,0.5912552,2.4017029,0.9895248c0.603363,0.3861771,1.0740051,0.8328323,1.3998718,1.3155899
		c0.3258972,0.4825745,0.5793762,0.9532394,0.7483521,1.3998947l9.7510681,23.5815735h3.6205139v9.0150146h-43.4218445v-9.0150146
		h3.5722961L440.6393738,106.2618866z M442.6065063,129.8434601h12.7442017l-5.8048401-15.7613678
		c-0.0604858-0.1689911-0.1328735-0.3619766-0.2052612-0.5912628c-0.0724182-0.2292862-0.1929932-0.3379669-0.3619995-0.3379669
		c-0.1689758,0-0.2895813,0.1086807-0.361969,0.3379669c-0.0725708,0.2292862-0.1328735,0.4222717-0.2052612,0.5912628
		L442.6065063,129.8434601z"/>
	<path class="st1" d="M393.7417908,138.8584747v-29.4348221c0-0.7602463,0.0844727-1.6049805,0.2653809-2.5463104
		c0.1689758-0.9292297,0.5672607-1.7378616,1.1827087-2.4257126c0.3863525-0.4585648,0.9655151-0.8810272,1.7620544-1.2792969
		c0.7965393-0.3861771,1.8223572-0.5912628,3.0653687-0.5912628h20.0455322c1.4481201,0,2.8360901,0.1447906,4.1515198,0.4464722
		c1.3032837,0.2895813,2.4619751,0.9895248,3.4635925,2.087738c0.8689575,0.9052277,1.5325928,2.1240387,2.0032654,3.6568146
		c0.4587708,1.5446854,0.7001343,3.6205215,0.7001343,6.2513199c0,0.6154556-0.0242004,1.4361877-0.0845032,2.4620056
		c-0.0483704,1.0137253-0.1931763,2.0756454-0.4103394,3.1859589c-0.2293091,1.0982208-0.5551758,2.1724319-0.9897461,3.2101593
		c-0.4222717,1.0379181-1.0258179,1.8826523-1.7860413,2.5344009c-0.856842,0.7241364-1.8947754,1.2310944-3.0774841,1.5327759
		c-1.1947937,0.2895813-2.2929993,0.4343719-3.2946167,0.4343719h-15.2905273v10.4753876H393.7417908z M413.8476257,119.3680801
		c0.7241516,0,1.4361877-0.0241928,2.124054-0.0723953c0.6878357-0.0603027,1.2792969-0.3379745,1.7618713-0.8568344
		c0.627533-0.6880417,0.9294128-1.7499619,0.9294128-3.1619568c0-0.4827576-0.0484009-0.9895248-0.1568909-1.4964828
		c-0.0965881-0.5188675-0.3861694-0.977623-0.881012-1.3516922c-0.4827881-0.4103699-1.0379333-0.6636581-1.6775818-0.724144
		c-0.6396484-0.0723953-1.3032837-0.1084976-1.9911499-0.1084976h-6.4808044c-0.4827576,0-0.856842,0.0844955-1.110321,0.2413788
		c-0.2653809,0.1447906-0.4585571,0.3258743-0.603363,0.5430603c-0.1328735,0.2050934-0.2171631,0.4222717-0.2534485,0.6636581
		c-0.0361328,0.2413788-0.0603027,0.470665-0.0603027,0.6759415v5.6479645H413.8476257z"/>
	<path class="st1" d="M362.183136,106.5756607c0.2774658-0.6638412,0.6033325-1.2671967,0.989502-1.8223572
		c0.3740845-0.5430527,0.8810425-1.0137177,1.4964905-1.3877945c0.6275635-0.3863602,1.3999023-0.6759415,2.3051147-0.8810272
		c0.9171448-0.217186,2.087738-0.3137741,3.4997253-0.3137741c0.8689575,0,1.7015991,0.0361023,2.5102234,0.1205902
		c0.8207397,0.0965958,1.5809631,0.2776794,2.2809143,0.5793533c0.7120361,0.2895813,1.3638,0.7362366,1.9792786,1.3153992
		c0.6033325,0.5914536,1.1102905,1.3879852,1.5206604,2.3896103l13.4199524,32.282814h-12.3338318l-2.848175-7.4703217h-13.0580139
		l-2.848175,7.4703217H348.76297L362.183136,106.5756607z M366.7447815,123.0970993h7.4584045l-3.2585449-9.1718979
		c-0.0723877-0.1326904-0.1447754-0.3016815-0.2292786-0.4827576c-0.0965881-0.1929932-0.1689758-0.2895813-0.241394-0.2895813
		c-0.0602722,0-0.1447754,0.0965881-0.2292786,0.2895813c-0.0844727,0.181076-0.1689758,0.3500671-0.2292786,0.4827576
		L366.7447815,123.0970993z"/>
	<path class="st1" d="M346.1200867,111.596077h-20.4075623c-0.5551453,0-0.9776001,0.0482025-1.2792969,0.1568909
		c-0.2895813,0.1084976-0.506958,0.253479-0.6396484,0.4464645c-0.1447754,0.1810837-0.2292786,0.4103699-0.2653503,0.6638489
		c-0.0363159,0.2653809-0.0484009,0.5672531-0.0484009,0.9171295v2.5826035h16.7388
		c1.4119873,0,2.6188965,0.2413788,3.6205139,0.724144c1.0016174,0.4827576,1.7860718,1.0379105,2.341217,1.6654663
		c0.4827576,0.5551529,0.856842,1.1948013,1.1345215,1.942955c0.2774658,0.7362366,0.4827576,1.4964828,0.627533,2.2809219
		c0.1326904,0.7723389,0.2171936,1.5325851,0.253479,2.2809219c0.0361023,0.7362366,0.0482178,1.4240875,0.0482178,2.0395432
		c0,1.556778-0.1087036,3.1135712-0.3379822,4.6945343c-0.2171631,1.5688782-0.7844238,2.920578-1.6773682,4.0670013
		c-0.1086731,0.1689758-0.3018799,0.4103546-0.6035461,0.7241364c-0.2895813,0.3137817-0.6878662,0.615448-1.1827087,0.9292297
		c-0.5067749,0.3137817-1.0861206,0.5793457-1.7618713,0.8086395c-0.6759338,0.2171783-1.4603882,0.3379669-2.3654175,0.3379669
		h-23.4729004c-1.5206604,0-2.7394714-0.4827576-3.6809998-1.4240875c-0.9292297-0.9534302-1.3877869-2.1722412-1.3877869-3.6566315
		v-25.3918304c0-1.3879852,0.2292786-2.4620056,0.6999512-3.2343521c0.4585571-0.7844391,1.0018005-1.3637848,1.629364-1.7378616
		c0.615448-0.3861694,1.2550964-0.6154556,1.8826294-0.6999435c0.6394653-0.0844955,1.1222229-0.1326981,1.4360046-0.1326981
		h28.6986084V111.596077z M323.4798279,127.4538574c0,0.6275482,0.0484009,1.0982056,0.1568604,1.4240875
		c0.0966187,0.3258667,0.253479,0.5672455,0.4585876,0.6999512c0.2173767,0.1447906,0.4706726,0.2171783,0.7844543,0.2292786
		c0.3137817,0.0242004,0.6759338,0.0362854,1.0862732,0.0362854h6.8909912c0.349884,0,0.7844238-0.0362854,1.3274841-0.0844879
		c0.5309753-0.0483856,0.9895325-0.253479,1.3638-0.5914459c0.349884-0.3137817,0.5430603-0.687851,0.603363-1.122406
		c0.0481873-0.4222794,0.0723877-0.7963562,0.0723877-1.1101303c0-0.4103622-0.0362854-0.7965393-0.0965881-1.1345062
		c-0.0723877-0.3498764-0.3016968-0.6636581-0.6757507-0.94133c-0.3861694-0.3016739-0.8207397-0.4827576-1.3275146-0.5430603
		c-0.4948425-0.0481949-0.9172974-0.0723953-1.2671814-0.0723953h-9.3771667V127.4538574z"/>
	<path class="st1" d="M288.3972168,134.393219c-0.2052612,0.6636505-0.4466553,1.2790985-0.7241516,1.8705597
		c-0.2774658,0.5912476-0.6638184,1.1103058-1.1705933,1.556778c-0.494873,0.4464722-1.1466064,0.7965393-1.9671631,1.0621033
		c-0.8086243,0.2532959-1.8586426,0.3861847-3.1377563,0.3861847c-1.2671814,0-2.3171997-0.1328888-3.1256409-0.3861847
		c-0.8207397-0.265564-1.4725037-0.6156311-1.9671631-1.0621033c-0.506958-0.4464722-0.8931274-0.9655304-1.1705933-1.556778
		c-0.2776794-0.5914612-0.519043-1.2069092-0.7241516-1.8705597l-5.599762-17.5111542
		c-0.0965881-0.3379669-0.2171936-0.651741-0.3379822-0.90522c-0.120575-0.253479-0.2532959-0.3861771-0.3861694-0.3861771
		c-0.2413635,0-0.374054,0.1568909-0.3861694,0.4585724c-0.0242004,0.3137741-0.0242004,0.5551529-0.0242004,0.7362366
		l0.3621826,22.072998h-11.7666016v-30.3156662c0-1.593071,0.3861694-2.811882,1.1464233-3.6808167
		c0.7602234-0.868927,1.6291809-1.4964828,2.6068115-1.8947525c0.989502-0.398262,1.9792175-0.6275482,2.956665-0.6999435
		c0.9897156-0.0604858,1.725769-0.0965881,2.2085266-0.0965881c0.7602234,0,1.5809631,0.0481949,2.4620056,0.1568832
		c0.881012,0.0965958,1.7497559,0.349884,2.606781,0.7481461c0.8687439,0.3982697,1.6652832,0.9897232,2.3894348,1.7862549
		c0.7241211,0.7963486,1.3274841,1.8945694,1.8102722,3.3186569l5.8532104,17.6198349
		c0.0361023,0.0965881,0.0845032,0.2413788,0.1568909,0.4103622c0.0724182,0.1689911,0.1568909,0.349884,0.2654114,0.5430603
		c0.0965881,0.1929932,0.2171631,0.349884,0.3379517,0.4948578c0.1206055,0.1326981,0.2292786,0.2050934,0.3258667,0.2050934
		c0.1085205,0,0.2171936-0.0723953,0.3379822-0.2050934c0.1206055-0.1449738,0.2413635-0.3018646,0.3377686-0.4948578
		c0.1087036-0.1931763,0.1931763-0.3740692,0.2655945-0.5430603c0.0603027-0.1689835,0.1206055-0.3137741,0.1568909-0.4103622
		l5.8530273-17.6198349c0.4466858-1.4240875,1.0379333-2.5223083,1.7862549-3.3186569
		c0.7481689-0.7965317,1.5447083-1.3879852,2.4136353-1.7862549c0.856842-0.398262,1.725769-0.6515503,2.606781-0.7481461
		c0.8810425-0.1086884,1.725769-0.1568832,2.5223083-0.1568832c2.0635681,0,3.6929321,0.217186,4.8635254,0.6757507
		c1.1827087,0.4466553,2.0635681,1.0016251,2.6671143,1.6533737c0.615448,0.651741,0.989502,1.3516922,1.1463928,2.0998383
		c0.1568909,0.7362366,0.2292786,1.3879852,0.2292786,1.9431381v30.3156662h-11.8147888l0.4222717-22.072998
		c0-0.4948578-0.0602722-0.8086319-0.1568909-0.9655228c-0.10849-0.1568909-0.2050781-0.2292862-0.3137512-0.2292862
		c-0.1085205,0-0.2051086,0.0965958-0.3137817,0.2774887c-0.0965881,0.1931763-0.241394,0.5311508-0.4103699,1.0139084
		L288.3972168,134.393219z"/>
	<path class="st1" d="M232.1827698,102.1707077c1.375885,0,2.7878723,0.0241928,4.2480774,0.0723953
		c1.4482727,0.0481949,2.8723602,0.2050858,4.2722626,0.4464645c1.3998871,0.2413788,2.7273865,0.6035461,3.9824982,1.1103134
		c1.2671967,0.506958,2.3775024,1.194809,3.3430328,2.0998459c0.9774323,0.8931198,1.7376862,1.9550476,2.2809143,3.1619492
		c0.5549774,1.2069016,0.965332,2.4620056,1.2430267,3.7774048c0.2774658,1.3154068,0.4464569,2.6549988,0.4946594,4.0187912
		c0.0483856,1.3637924,0.0844879,2.6549988,0.0844879,3.8619003c0,1.2067108-0.0361023,2.4860077-0.0844879,3.8377075
		c-0.0482025,1.339592-0.2171936,2.6670914-0.4946594,3.9824982c-0.2776947,1.3153992-0.6880493,2.5704956-1.2430267,3.789505
		c-0.5432281,1.2068939-1.3034821,2.2809143-2.2809143,3.210144c-0.9655304,0.8931274-2.0758362,1.5930786-3.3430328,2.0998383
		c-1.2551117,0.4948578-2.5826111,0.8689423-3.9824982,1.110321c-1.3999023,0.2413788-2.8360901,0.3861694-4.3083801,0.4466553
		c-1.4603729,0.0482025-2.8723602,0.072403-4.2119598,0.072403c-1.3516998,0-2.7636871-0.0242004-4.2238617-0.072403
		c-1.4723053-0.0604858-2.908493-0.2052765-4.3083801-0.4466553c-1.3999023-0.2413788-2.7274017-0.6154633-3.9824982-1.110321
		c-1.2671967-0.5067596-2.3775024-1.2067108-3.3430328-2.0998383c-1.0016327-0.9292297-1.7739716-2.0032501-2.30513-3.210144
		c-0.5430603-1.2190094-0.9413147-2.4741058-1.218811-3.789505c-0.2774811-1.3154068-0.4464569-2.6429062-0.4948578-3.9824982
		c-0.0482025-1.3516998-0.0844879-2.6309967-0.0844879-3.8377075c0-1.2069016,0.0362854-2.4981079,0.0844879-3.8619003
		c0.0484009-1.3637924,0.2173767-2.7033844,0.4948578-4.0187912c0.2774963-1.3153992,0.6757507-2.5705032,1.218811-3.7774048
		c0.5311584-1.2069016,1.3034973-2.2688293,2.30513-3.1619492c0.9655304-0.9050369,2.0758362-1.5928879,3.3430328-2.0998459
		c1.2550964-0.5067673,2.5825958-0.8689346,3.9824982-1.1103134c1.3998871-0.2413788,2.8239746-0.3982697,4.2720642-0.4464645
		C229.3829803,102.1949005,230.7949677,102.1707077,232.1827698,102.1707077L232.1827698,102.1707077z M224.2538757,120.7197723
		c0,1.4480972,0.072403,2.7394867,0.2292938,3.8619003c0.1568756,1.1222229,0.5311432,2.1240311,1.1103058,3.029068
		c0.3861694,0.5912552,0.8086395,1.0621109,1.2672119,1.4240952c0.4706573,0.361969,0.9776154,0.6275482,1.5085754,0.8086243
		c0.5309601,0.168808,1.122406,0.2774963,1.7618713,0.3256836c0.6396484,0.0604858,1.3155823,0.0845032,2.0516357,0.0845032
		c0.760437,0,1.448288-0.0240173,2.0879364-0.0845032c0.6396484-0.0481873,1.218811-0.1568756,1.737854-0.3256836
		c0.5188751-0.181076,1.0016327-0.4466553,1.4481049-0.8086243c0.4585571-0.3619843,0.8810272-0.83284,1.3034821-1.4240952
		c0.6515656-0.9655228,1.037735-1.9913406,1.1585236-3.0895538c0.1206055-1.0861206,0.1808929-2.3533173,0.1808929-3.8014145
		c0-0.7965393,0-1.5085831-0.0240173-2.1240387c-0.012085-0.6275482-0.0602875-1.2069016-0.1207733-1.7378616
		c-0.0723877-0.5309601-0.2050934-1.0500183-0.3982697-1.5327759c-0.1808929-0.4825745-0.4585571-0.9774323-0.7963562-1.4964828
		c-0.7965393-1.1827087-1.7138519-1.906662-2.7515869-2.2083435c-1.0379181-0.2897644-2.317215-0.4345551-3.8257904-0.4345551
		c-0.7602539,0-1.4601898,0.0241928-2.0756531,0.0723953c-0.6275482,0.0602951-1.2068939,0.181076-1.7620544,0.3621597
		c-0.5551605,0.1929932-1.0498199,0.4585724-1.5085754,0.8084488c-0.4464569,0.3500671-0.856842,0.8086319-1.2430115,1.3998947
		c-0.6517487,0.9655228-1.0379181,1.9792404-1.1585083,3.0292587
		C224.3141785,117.9076996,224.2538757,119.1990967,224.2538757,120.7197723L224.2538757,120.7197723z"/>
	<path class="st1" d="M183.6802063,105.8997269c0.3740692-0.8689346,0.8929443-1.5446854,1.556778-2.0516434
		c0.6517487-0.4946671,1.3516998-0.8808441,2.0877533-1.1343155c0.7483368-0.2655792,1.484375-0.4224701,2.2327118-0.470665
		c0.7481537-0.0482025,1.3878021-0.0723953,1.9429626-0.0723953c0.5551453,0,1.2068939,0.0241928,1.9429474,0.0723953
		c0.7483368,0.0481949,1.4843903,0.2050858,2.2327271,0.470665c0.7362366,0.2534714,1.4361877,0.6396484,2.0998535,1.1343155
		c0.6517334,0.506958,1.1705933,1.1827087,1.5448608,2.0516434l13.9388275,32.9587479h-12.4304352l-8.7615356-23.9919434
		c-0.0602875-0.1084976-0.1447906-0.2774887-0.2292786-0.5188675s-0.2052765-0.3621674-0.3379669-0.3621674
		s-0.253479,0.1207886-0.3379669,0.3621674c-0.0845032,0.2413788-0.1568909,0.4103699-0.2292938,0.5188675l-8.7615204,23.9919434
		h-12.4304352L183.6802063,105.8997269z"/>
	<path class="st1" d="M48.0921898,33.5260048c-0.5309601,0-1.061924,0.0361023-1.5928841,0.0964012
		c-0.5309639,0.0604858-1.0379181,0.3258705-1.5085831,0.7965355c-0.4706612,0.470665-0.7483368,0.9776192-0.7965355,1.5085793
		c-0.0602989,0.5309639-0.0965843,1.098217-0.0965843,1.689476v43.1203613H24.0520477V27.5882683
		c0-1.0016251,0.1449795-2.0516415,0.4466572-3.1498566c0.2895813-1.0982151,0.941328-2.1480408,1.9429531-3.1498547
		c1.4240875-1.4240894,2.9566746-2.220438,4.6221447-2.4015198c1.6533718-0.1689854,3.22225-0.2655754,4.69454-0.2655754h38.8601875
		c1.8342667,0,3.4997406,0.1207848,4.9722137,0.3621655c1.4843903,0.2292824,2.8721848,1.0016251,4.1754913,2.3049297
		c1.0018158,1.0018139,1.6533737,2.0516396,1.9431381,3.1498547c0.3016815,1.0982151,0.4464722,2.1482315,0.4464722,3.1498566
		v53.1490898H66.1102982V37.6169968c0-0.5430603-0.0361099-1.0861168-0.0965958-1.6412735
		c-0.0602951-0.5670662-0.3258743-1.0861168-0.7965317-1.5567818c-0.470665-0.470665-0.9653397-0.7360497-1.4601936-0.7965355
		c-0.5067673-0.0602989-1.0500145-0.0964012-1.6412773-0.0964012H48.0921898z"/>
	<path class="st1" d="M105.4048615,80.7373581c-1.2913971,0-2.5826035-0.1086884-3.8498077-0.3137741
		c-1.2792969-0.2052765-2.5102081-0.8086395-3.680809-1.8223572c-1.4240952-1.1827087-2.2567368-2.4017105-2.4862061-3.6808167
		c-0.2411957-1.2672043-0.3619766-2.6430893-0.3619766-4.1274796V28.203722c0-1.1827087,0.1447906-2.3894215,0.4464645-3.632616
		c0.289772-1.2430058,1.0379181-2.4015198,2.2206268-3.4634438c1.1827087-1.0621109,2.449913-1.7378635,3.8136978-2.0395432
		c1.3636017-0.3018665,2.6066132-0.4466572,3.7290192-0.4466572h44.6287689v15.0854359H119.162796
		c-0.5914536,0-1.1706161,0.0723953-1.725769,0.217186c-0.5672531,0.157074-1.0258179,0.3742599-1.3758926,0.6759415
		c-0.4827576,0.4103661-0.7602386,0.9171295-0.8447342,1.5085793c-0.0965881,0.591259-0.1326904,1.0861168-0.1326904,1.5083923
		v4.6947289h33.8877869v13.492363h-33.8877869v6.7340813c0,0.6638451,0.0844879,1.1587029,0.2653809,1.5206833
		c0.1810837,0.3498764,0.3861771,0.615448,0.6156464,0.7965317c0.4825745,0.470665,1.0740204,0.724144,1.7739716,0.7481461
		c0.7120438,0.036293,1.3877945,0.0483932,2.0395355,0.0483932h30.3519592v15.085434H105.4048615z"/>
	<path class="st1" d="M190.7641754,47.3682442c1.2431946,0,2.4499054-0.0361061,3.6326141-0.1326942
		c1.1827087-0.0844917,2.1964264-0.5672531,3.0171661-1.4601936c1.0740204-1.1827049,1.6049805-2.9808693,1.6049805-5.4067726
		c0-0.8326378-0.096405-1.6894722-0.2653961-2.5825996c-0.181076-0.8808403-0.687851-1.6533737-1.5085754-2.3049316
		c-0.8326416-0.7120438-1.7981567-1.1224098-2.8842773-1.2431946c-1.0982208-0.120594-2.2327118-0.1808929-3.4154358-0.1808929
		h-11.0908356c-0.8326416,0-1.47229,0.1447906-1.906662,0.4103661c-0.4466553,0.2653847-0.7844391,0.5670662-1.0258179,0.9292297
		c-0.241394,0.3498802-0.3861847,0.7360497-0.4466705,1.1464157c-0.0602875,0.4224625-0.0844879,0.8086357-0.0844879,1.1585121
		v9.6667557H190.7641754z M156.3333282,80.7373581V30.3398552c0-1.3033047,0.1568756-2.7515869,0.4464569-4.3565693
		c0.3016968-1.5930748,0.9776306-2.9808712,2.0395508-4.163578c0.6517487-0.7725315,1.6533661-1.4964848,3.0171661-2.1724262
		c1.3636017-0.6757526,3.1135559-1.0258198,5.2375946-1.0258198h34.3344421c2.4860229,0,4.8514252,0.2534771,7.0962677,0.7604332
		c2.2567139,0.4946709,4.2359619,1.7015724,5.9496307,3.5963249c1.47229,1.5325871,2.6188965,3.6205196,3.4152374,6.2513218
		c0.7965393,2.6309929,1.194809,6.1910248,1.194809,10.6925735c0,1.0621109-0.0361023,2.4620056-0.1326904,4.2119675
		c-0.0845032,1.7497749-0.325882,3.5600319-0.7120514,5.4547844s-0.94133,3.7292099-1.6775665,5.5031776
		c-0.7481384,1.7741547-1.7618561,3.2222481-3.0653687,4.3446579c-1.484375,1.2430077-3.2341461,2.1240387-5.27388,2.6187057
		c-2.0395508,0.506958-3.9221954,0.7604332-5.6358643,0.7604332h-26.1762848v17.9215164H156.3333282z"/>
	<path class="st1" d="M281.9768982,18.6214619v46.6682968h12.0561829c0.4827576,0,0.9776306-0.0361023,1.508606-0.1326904
		c0.5430298-0.0844955,1.0137024-0.3619766,1.4240723-0.8328323c0.4706726-0.6515541,0.7120361-1.7860641,0.7120361-3.3789482
		v-42.323822H317.73526v52.7990265c0,1.0018158-0.1568909,2.1361313-0.4464722,3.4154282
		c-0.3016663,1.2672043-0.9776306,2.41362-2.0395508,3.4152451c-0.7723389,0.7120438-1.7739563,1.3034897-3.0171509,1.7741547
		c-1.2430115,0.470665-2.6670837,0.7120438-4.2599792,0.7120438h-72.0480347c-1.8344574,0-3.3309326-0.253479-4.477356-0.760437
		c-1.1587067-0.4946671-2.063736-1.0740204-2.7154846-1.7257614c-1.1222229-1.0016251-1.834259-2.1119385-2.1240387-3.3307495
		c-0.3016663-1.2069016-0.4464569-2.3775177-0.4464569-3.4999237V18.6214619h20.0576477v42.323822
		c0,1.5928841,0.2292786,2.7273941,0.7120361,3.3789482c0.4101715,0.4708557,0.8808441,0.7483368,1.4119873,0.8328323
		c0.5309601,0.0965881,1.037735,0.1326904,1.5083923,0.1326904h12.0684509V18.6214619H281.9768982z"/>
	<path class="st1" d="M373.8049316,80.7373581l0.8808289-36.4705811c0-0.5914497-0.0240173-1.1224098-0.0845032-1.5930748
		c-0.0602722-0.4827614-0.3256836-0.7120438-0.7963257-0.7120438c-0.3018799,0-0.5914612,0.253479-0.8931274,0.7483368
		c-0.2895813,0.5067673-0.7723389,1.2672005-1.4119873,2.2688255l-17.6559448,30.1587753
		c-0.4224854,0.7120438-0.9534302,1.4601898-1.6051636,2.2206268c-0.6517639,0.7723389-1.4964905,1.4480896-2.5223083,2.0395355
		c-1.0379333,0.5912628-2.3049316,1.0861206-3.8135071,1.47229c-1.5085754,0.3740768-3.3309631,0.5672531-5.4670715,0.5672531
		c-3.0653687,0-5.5151062-0.4224625-7.313446-1.2792969c-1.8100586-0.8568344-3.1980591-1.9792404-4.1754761-3.3670425
		c-0.9655457-1.3998871-1.6051941-2.9808655-1.9068604-4.7550201c-0.2895813-1.7739716-0.4345398-3.608429-0.4345398-5.5031815
		V18.6214619h20.4076843l-0.8930969,35.5774536v0.9776192c0,0.4224625,0.0481873,0.8810272,0.1326599,1.3756981
		c0.0845032,0.506958,0.3982849,0.7604332,0.9294434,0.7604332c0.3016663,0,0.5670471-0.1931801,0.7963257-0.5793495
		c0.241394-0.3861732,0.5672607-0.9292297,0.9776306-1.6412735l17.1249695-29.9052963
		c0.9534302-1.7138577,2.0153503-3.0532665,3.1980591-4.0308857c1.1827087-0.9774303,2.3775024-1.7015724,3.5963135-2.1722355
		c1.2069092-0.4706631,2.3896179-0.7723427,3.5481262-0.8931274c1.1466064-0.1205959,2.1724243-0.1689854,3.0532837-0.1689854
		c3.5602112,0,6.3117981,0.5551567,8.3031311,1.6775665c1.979248,1.1224098,3.4394531,2.4860115,4.3928833,4.0790863
		c0.9413147,1.6051712,1.5206604,3.2825489,1.725769,5.0567055c0.2050781,1.7739677,0.3137512,3.2825489,0.3137512,4.5255566
		v47.4769287H373.8049316z"/>
	<path class="st1" d="M450.2819214,80.7373581l0.8931274-36.4705811c0-0.5914497-0.0362854-1.1224098-0.0965881-1.5930748
		c-0.0603027-0.4827614-0.3258667-0.7120438-0.7965393-0.7120438c-0.2895813,0-0.5912476,0.253479-0.8810425,0.7483368
		c-0.3016663,0.5067673-0.7723389,1.2672005-1.4240723,2.2688255l-17.6559448,30.1587753
		c-0.4103699,0.7120438-0.9534302,1.4601898-1.5928955,2.2206268c-0.6517334,0.7723389-1.49646,1.4480896-2.5343933,2.0395355
		c-1.0379028,0.5912628-2.3051147,1.0861206-3.8136902,1.47229c-1.5085754,0.3740768-3.3307495,0.5672531-5.4548035,0.5672531
		c-3.0774536,0-5.5152588-0.4224625-7.325531-1.2792969c-1.7981567-0.8568344-3.1859436-1.9792404-4.1635742-3.3670425
		c-0.9776001-1.3998871-1.6170654-2.9808655-1.9068298-4.7550201c-0.3016968-1.7739716-0.4464722-3.608429-0.4464722-5.5031815
		V18.6214619h20.4075317l-0.8929443,35.5774536c0,0.7725296,0.0361023,1.4845734,0.096405,2.1361313
		c0.0604858,0.6517487,0.3861694,0.9776192,0.9776001,0.9776192c0.2895813,0,0.5551758-0.1931801,0.7965393-0.5793495
		c0.2292786-0.3861732,0.5551758-0.9292297,0.9774475-1.6412735l17.1249695-29.9052963
		c0.9413452-1.7138577,2.0034485-3.0532665,3.1861572-4.0308857c1.1827087-0.9774303,2.3775024-1.7015724,3.5963135-2.1722355
		c1.2069092-0.4706631,2.3896179-0.7723427,3.5481262-0.8931274c1.1585083-0.1205959,2.1722412-0.1689854,3.0653687-0.1689854
		c3.5481262,0,6.311615,0.5551567,8.290863,1.6775665s3.4394226,2.4860115,4.3928528,4.0790863
		c0.9413147,1.6051712,1.5206909,3.2825489,1.725769,5.0567055c0.2052917,1.7739677,0.3137817,3.2825489,0.3137817,4.5255566
		v47.4769287H450.2819214z"/>
	<path class="st2" d="M432.0950317,0h4.5858459c2.4257202,0,4.4170532,1.9913424,4.4170532,4.4170566v4.5860419
		c0,2.4257135-1.991333,4.4170561-4.4170532,4.4170561h-4.5858459c-2.4257202,0-4.4170837-1.9913425-4.4170837-4.4170561V4.4170566
		C427.677948,1.9913424,429.6693115,0,432.0950317,0L432.0950317,0z"/>
	<rect y="177.9598541" class="st0" width="98.9482574" height="24.040144"/>
	<rect x="98.9482574" y="177.9598541" class="st3" width="98.9484482" height="24.040144"/>
	<rect x="197.8967133" y="177.9598541" class="st4" width="98.9482651" height="24.040144"/>
	<rect x="296.8449707" y="177.9598541" class="st5" width="98.9484482" height="24.040144"/>
	<rect x="395.7934265" y="177.9598541" class="st6" width="98.9482651" height="24.040144"/>
</g>
</svg>
