<?xml version="1.0" encoding="utf-8"?>
<!-- Generator: Adobe Illustrator 23.0.5, SVG Export Plug-In . SVG Version: 6.00 Build 0)  -->
<!DOCTYPE svg PUBLIC "-//W3C//DTD SVG 1.1//EN" "http://www.w3.org/Graphics/SVG/1.1/DTD/svg11.dtd" [
	<!ENTITY ns_extend "http://ns.adobe.com/Extensibility/1.0/">
	<!ENTITY ns_ai "http://ns.adobe.com/AdobeIllustrator/10.0/">
	<!ENTITY ns_graphs "http://ns.adobe.com/Graphs/1.0/">
	<!ENTITY ns_vars "http://ns.adobe.com/Variables/1.0/">
	<!ENTITY ns_imrep "http://ns.adobe.com/ImageReplacement/1.0/">
	<!ENTITY ns_sfw "http://ns.adobe.com/SaveForWeb/1.0/">
	<!ENTITY ns_custom "http://ns.adobe.com/GenericCustomNamespace/1.0/">
	<!ENTITY ns_adobe_xpath "http://ns.adobe.com/XPath/1.0/">
]>
<svg version="1.1" id="Слой_1" xmlns:x="&ns_extend;" xmlns:i="&ns_ai;" xmlns:graph="&ns_graphs;"
	 xmlns="http://www.w3.org/2000/svg" xmlns:xlink="http://www.w3.org/1999/xlink" x="0px" y="0px" viewBox="0 0 494.7312012 202"
	 style="enable-background:new 0 0 494.7312012 202;" xml:space="preserve">
<style type="text/css">
	.st0{fill:#C42F2A;}
	.st1{fill:#3F454B;}
	.st2{fill-rule:evenodd;clip-rule:evenodd;fill:#C42F2A;}
	.st3{fill:#1E80B3;}
	.st4{fill:#EDDD3F;}
	.st5{fill:#32834B;}
	.st6{fill:#9470AC;}
</style>
<metadata>
	<sfw  xmlns="&ns_sfw;">
		<slices></slices>
		<sliceSourceBounds  bottomLeftOrigin="true" height="202" width="494.7312012" x="263.4375305" y="0"></sliceSourceBounds>
	</sfw>
</metadata>
<g>
	<path class="st0" d="M50.4410019,138.8566132l-0.5199852-6.6063538h-10.76474l-3.2229347,6.6063538H24.0532112
		l19.9135628-35.8672028h13.4302864l4.0544243,35.8672028H50.4410019z M48.8719673,113.6314774
		c0-1.1246567,0.0378036-1.9468842,0.12286-2.4479675h-0.2551727l-0.4725418,1.2477036l-0.9545403,2.1831512l-4.3475914,9.1771774
		h6.4078827l-0.4819946-8.9787064L48.8719673,113.6314774z M100.437645,111.3916168
		c0,2.2493057-0.793869,4.1205826-2.3910675,5.5949173c-1.5879364,1.4839783-3.7899933,2.4857712-6.5687408,3.0055695v0.0945053
		c2.2494965,0.2835312,4.0168152,1.1152039,5.2737808,2.4666824c1.2758636,1.3611145,1.9092636,3.0906219,1.9092636,5.1981659
		c0,2.2684097-0.6239471,4.2341843-1.8809128,5.8880844c-1.2475128,1.6633606-3.0904388,2.9488678-5.5195007,3.8561554
		c-2.419426,0.9072723-5.377739,1.3609161-8.8651123,1.3609161H65.6100388l7.5797882-35.8672028h14.7628326
		c4.2152786,0,7.3529739,0.6804657,9.4038162,2.0508423C99.4075012,106.4108124,100.437645,108.5278091,100.437645,111.3916168
		L100.437645,111.3916168z M88.9733582,113.4897079c0-1.2002563-0.33078-2.0415726-1.0112457-2.5424728
		c-0.6804657-0.4819946-1.8523712-0.7277145-3.5159149-0.7277145h-1.975235l-1.4459839,6.7575607h3.3739624
		c1.3325729,0,2.4290695-0.3402252,3.289093-1.0206909C88.5480652,115.2664719,88.9733582,114.4536972,88.9733582,113.4897079
		L88.9733582,113.4897079z M87.1682358,127.5340881c0-0.9923401-0.3118744-1.7767639-0.9450836-2.3816147
		c-0.6334-0.5954056-1.5123291-0.8978348-2.627533-0.8978348H79.541008l-1.6539078,7.3246155h3.8088913
		c1.7200623,0,3.062088-0.3496857,4.0260773-1.0773926C86.695694,129.7741394,87.1682358,128.781601,87.1682358,127.5340881
		L87.1682358,127.5340881z M134.6414948,111.4481354h-10.1600647l-5.7746429,27.4084778h-10.8689117l5.7841187-27.4084778
		h-10.0372086l1.7769547-8.458725h31.0565186L134.6414948,111.4481354z M169.7902527,118.1113815
		c0,3.9315643-0.8600311,7.5986862-2.5800934,10.9821091c-1.7295074,3.3835907-4.1207733,5.9542389-7.1828461,7.7217407
		c-3.0622711,1.7673187-6.7103119,2.6557007-10.9255981,2.6557007c-3.2040253,0-5.9542389-0.6521149-8.2696991-1.9563446
		c-2.3061981-1.3136597-4.0735168-3.1567688-5.2926788-5.5478516c-1.219162-2.3816223-1.8242188-5.1036606-1.8242188-8.1846466
		c0-3.9601059,0.8696747-7.6272278,2.627533-10.991745c1.7484131-3.3741531,4.1680298-5.9542389,7.2301178-7.7406464
		c3.0717163-1.7862167,6.6252441-2.6745987,10.6893158-2.6745987c4.8106842,0,8.6099396,1.398735,11.3792267,4.2058334
		C168.4104309,109.3783875,169.7902527,113.2250824,169.7902527,118.1113815L169.7902527,118.1113815z M158.307251,118.4610596
		c0-2.183342-0.4538269-3.8466949-1.3611145-4.9902496s-2.2115021-1.7200623-3.9221191-1.7200623
		c-1.5595856,0-2.9205017,0.5292511-4.0924072,1.5783005c-1.1719208,1.0584946-2.0886536,2.5044785-2.7407684,4.3664932
		c-0.6617432,1.861824-0.9925232,3.8087006-0.9925232,5.8406372c0,2.2211456,0.463089,3.8939514,1.3705597,5.0280609
		c0.9261932,1.1248322,2.1926117,1.6824341,3.8087158,1.6824341c1.5028687,0,2.8448944-0.463089,4.0262604-1.3989105
		c1.1908112-0.9356384,2.1358948-2.3532715,2.8447113-4.2717972
		C157.9573822,122.6667023,158.307251,120.6347656,158.307251,118.4610596L158.307251,118.4610596z"/>
	<path class="st1" d="M440.6326904,106.2595978c0.1701355-0.4538269,0.4158325-0.9167328,0.7466125-1.3989182
		c0.33078-0.4819946,0.7938843-0.9261856,1.3987427-1.3231201s1.4081726-0.7277145,2.4101563-0.9828873
		c1.0018005-0.2551804,2.2587585-0.3874893,3.780365-0.3874893c1.5215759,0,2.7787476,0.132309,3.7805176,0.3874893
		c1.0018005,0.2551727,1.8051147,0.5859528,2.4099731,0.9828873s1.0774231,0.8411255,1.3987427,1.3231201
		c0.3309631,0.4821854,0.585968,0.9450912,0.756073,1.3989182l9.7442322,23.5712433h3.619873v9.0163269h-43.4188538v-9.0163269
		h3.5726318L440.6326904,106.2595978z M442.5984802,129.8308411h12.7496033l-5.8124695-15.7457275
		c-0.0661621-0.1795654-0.1323242-0.3780289-0.1984863-0.5954056c-0.075592-0.2268219-0.1984558-0.3402252-0.3685608-0.3402252
		c-0.1701355,0-0.2929993,0.1134033-0.3591309,0.3402252c-0.0661621,0.2173767-0.1417847,0.4158401-0.2079468,0.5954056
		L442.5984802,129.8308411z"/>
	<path class="st1" d="M393.7359314,138.847168v-29.4309769c0-0.7560654,0.0850525-1.6066437,0.255188-2.5328293
		c0.1795654-0.9356384,0.5765076-1.7486038,1.1907959-2.4385147c0.3874817-0.444191,0.9734497-0.8694839,1.767334-1.2664185
		c0.7938538-0.3969421,1.8147583-0.5954056,3.0527954-0.5954056h20.0553589c1.446167,0,2.8354187,0.1417618,4.1491089,0.4347382
		c1.3042297,0.2929764,2.4666748,0.9923401,3.4686584,2.0980988c0.8600159,0.8980179,1.5310364,2.1171799,1.9941406,3.6576767
		c0.4630737,1.5310364,0.6993408,3.619873,0.6993408,6.2377625c0,0.623764-0.0283508,1.4459839-0.075592,2.4666824
		c-0.0567017,1.0208817-0.1890259,2.0793839-0.4158325,3.1851349c-0.2268372,1.105751-0.5576172,2.1736984-0.9829102,3.2134857
		c-0.4347229,1.0395966-1.0301208,1.880722-1.7861938,2.5422821c-0.8696899,0.7182693-1.8998108,1.2286148-3.0906372,1.5215912
		c-1.1907959,0.292984-2.2871094,0.4441986-3.2890625,0.4441986h-15.2824707v10.4624939H393.7359314z M413.8385315,119.3683472
		c0.7276917,0,1.4367371-0.0283585,2.1266479-0.0756073c0.6899109-0.0567093,1.2758789-0.3402328,1.7578735-0.8600311
		c0.6237488-0.6899185,0.9356384-1.739151,0.9356384-3.1567841c0-0.4819946-0.0567017-0.9828873-0.160675-1.5026855
		c-0.0945129-0.5197983-0.3969421-0.9639893-0.8789368-1.3514786c-0.4819946-0.4158401-1.0395813-0.6521072-1.682251-0.7182617
		c-0.6428833-0.075798-1.3044434-0.1041489-1.9943542-0.1041489h-6.4740295c-0.4819946,0-0.8600464,0.0756073-1.1152039,0.227005
		c-0.2646179,0.1604767-0.4631042,0.3402328-0.5953979,0.5481491c-0.1417847,0.2079239-0.2268372,0.4347458-0.2646484,0.6710129
		c-0.0283508,0.2457275-0.0472412,0.4630966-0.0472412,0.6710129v5.6518173H413.8385315z"/>
	<path class="st1" d="M362.1785278,106.5714798c0.2740784-0.6615601,0.6048584-1.2666092,0.9828796-1.8147583
		c0.3780518-0.5576019,0.8789368-1.0206909,1.5026855-1.3987274s1.3892822-0.6710129,2.3060303-0.8789291
		c0.9169006-0.2079239,2.0793762-0.311882,3.4970093-0.311882c0.8694763,0,1.7011414,0.0378036,2.513916,0.132309
		c0.8129883,0.0850601,1.5690308,0.2740784,2.2778625,0.5670547c0.7088013,0.2929764,1.3703613,0.7277222,1.9752197,1.3231277
		c0.6048584,0.5859528,1.1152039,1.3800125,1.5216064,2.3818054l13.4208069,32.2756882h-12.3243103l-2.8543701-7.4569244
		h-13.0614929l-2.8448486,7.4569244h-12.3338013L362.1785278,106.5714798z M366.7338257,123.1014404h7.4665833l-3.2607422-9.1769867
		c-0.075592-0.1323166-0.1512146-0.3024292-0.2362671-0.4914474s-0.160675-0.2835236-0.2362671-0.2835236
		c-0.0661621,0-0.1417847,0.0945053-0.2268372,0.2835236c-0.0945129,0.1890182-0.170105,0.3591309-0.2362671,0.4914474
		L366.7338257,123.1014404z"/>
	<path class="st1" d="M346.1114502,111.59935h-20.4146423c-0.5481567,0-0.9734192,0.0474396-1.2664185,0.1513977
		c-0.2929688,0.103775-0.5103455,0.2551727-0.6426392,0.444191c-0.1417847,0.1890182-0.2268372,0.4158401-0.2646484,0.6710129
		c-0.0377808,0.2551727-0.0472412,0.5576019-0.0472412,0.9072876v2.5895386h16.7286072
		c1.4176331,0,2.6273499,0.2457199,3.6293335,0.7277145c1.0018005,0.4821854,1.7767639,1.0303345,2.3343811,1.6540909
		c0.4819946,0.5576019,0.8600159,1.200264,1.1435547,1.9468842c0.2740479,0.7371674,0.4819946,1.5026855,0.6142883,2.2776642
		c0.1417542,0.7751541,0.2268372,1.5406799,0.2646179,2.2778473c0.0283508,0.7466202,0.0472717,1.4270782,0.0472717,2.0508423
		c0,1.549942-0.1134033,3.1189728-0.33078,4.6878204c-0.2268372,1.5688477-0.7938843,2.9297791-1.6917114,4.0640717
		c-0.1039734,0.1795654-0.3024292,0.4158325-0.5953979,0.7277069c-0.2929993,0.3118896-0.6899109,0.623764-1.1908264,0.9356384
		c-0.500885,0.3118896-1.086853,0.5765076-1.7580566,0.8033295c-0.67099,0.2268219-1.4648743,0.33078-2.3627014,0.33078H316.841156
		c-1.5216064,0-2.7502136-0.4725494-3.6765747-1.4176331c-0.9356384-0.9545441-1.3987427-2.1738892-1.3987427-3.6576843v-25.3858032
		c0-1.3892746,0.2268372-2.4666748,0.6993713-3.2418365c0.4631042-0.774971,1.0018005-1.3514786,1.6257324-1.7389603
		c0.6237793-0.3780365,1.2569885-0.6048584,1.8901978-0.6993637c0.6426392-0.0850601,1.1151733-0.1228638,1.427063-0.1228638
		h28.7032471V111.59935z M323.4758606,127.4490356c0,0.6237488,0.0472412,1.0962982,0.1512146,1.4270782
		c0.1039429,0.33078,0.2551575,0.5576019,0.4631042,0.6995544c0.2079163,0.1417694,0.4725342,0.2173767,0.7844238,0.2362671
		c0.3118591,0.0189056,0.6711731,0.0189056,1.0870361,0.0189056h6.8898621c0.3402405,0,0.7844238-0.0189056,1.3231201-0.0756073
		c0.5292664-0.0472565,0.9923401-0.2457275,1.3703918-0.5955963c0.3496704-0.3118744,0.5481567-0.6804657,0.5953979-1.1152039
		c0.0567017-0.4252853,0.075592-0.8033218,0.075592-1.1151962c0-0.4063873-0.0283508-0.7938766-0.1039429-1.1341095
		c-0.0661621-0.349678-0.2929688-0.6615601-0.6710205-0.9356384c-0.3780212-0.3118744-0.8222351-0.4914398-1.3231201-0.5386963
		c-0.500885-0.0567093-0.926178-0.0850601-1.2664185-0.0850601h-9.3756409V127.4490356z"/>
	<path class="st1" d="M288.3930664,134.3956146c-0.2079163,0.6521149-0.4536438,1.276062-0.7277222,1.8620148
		s-0.6615601,1.1057434-1.1624451,1.5593872c-0.500885,0.4441986-1.1624451,0.8033295-1.9657898,1.0585022
		c-0.8127747,0.2646179-1.8619995,0.3874817-3.1378784,0.3874817c-1.2758484,0-2.3249207-0.1228638-3.1376953-0.3874817
		c-0.8127747-0.2551727-1.4650574-0.6143036-1.9659729-1.0585022c-0.500885-0.4536438-0.8883667-0.9734344-1.1719055-1.5593872
		c-0.2740784-0.5859528-0.5103455-1.2098999-0.7182617-1.8620148l-5.5950928-17.5130386
		c-0.1039734-0.3496857-0.2173767-0.6521149-0.3402405-0.9072876c-0.1228638-0.2646255-0.255188-0.3874817-0.3874817-0.3874817
		c-0.2457275,0-0.3685913,0.1512146-0.3874817,0.463089c-0.0189209,0.311882-0.0283508,0.5576019-0.0283508,0.7277222
		l0.3591309,22.0685501h-11.7572632v-30.309906c0-1.5877457,0.3780212-2.8165512,1.1340942-3.6765823
		c0.7655029-0.8600235,1.6350098-1.4932327,2.6180725-1.8901749c0.9829102-0.3969345,1.9752502-0.6332092,2.9581299-0.6993637
		c0.9828796-0.0756073,1.7200623-0.1039581,2.2020569-0.1039581c0.7562561,0,1.5784912,0.0472565,2.457428,0.1512146
		c0.8789063,0.1039581,1.757843,0.3591309,2.6178894,0.756073c0.8600159,0.3969345,1.6635437,0.9923401,2.3818054,1.7862091
		c0.7277222,0.7940674,1.3325806,1.8998184,1.8145752,3.3174515l5.8597107,17.6169968
		c0.0283508,0.1039581,0.0850525,0.2362747,0.1512146,0.4158401c0.0661621,0.1701126,0.160675,0.3496857,0.2646179,0.5386963
		c0.1039734,0.1890182,0.2079468,0.3591385,0.33078,0.4914474c0.1228638,0.1417618,0.2362976,0.2079239,0.3402405,0.2079239
		c0.1039734,0,0.2173767-0.0661621,0.33078-0.2079239c0.1228638-0.132309,0.2362671-0.3024292,0.3402405-0.4914474
		c0.1039429-0.1890106,0.1890259-0.3685837,0.2646179-0.5386963c0.0661621-0.1795654,0.1134033-0.311882,0.1512146-0.4158401
		l5.8502808-17.6169968c0.4536438-1.4176331,1.0490417-2.5233841,1.7958679-3.3174515
		c0.7371521-0.793869,1.5404968-1.3892746,2.4099731-1.7862091c0.8600159-0.3969421,1.7294922-0.6521149,2.608429-0.756073
		c0.8886108-0.1039581,1.7202759-0.1512146,2.5141602-0.1512146c2.0791931,0,3.695282,0.2268219,4.8768005,0.6710129
		c1.1719055,0.4536438,2.0603027,1.0017929,2.6651611,1.663353c0.6048584,0.6521149,0.9828796,1.3514786,1.1435547,2.0982819
		c0.1512146,0.7371674,0.2268066,1.3892822,0.2268066,1.9374313v30.309906h-11.8139648l0.4158325-22.0685501
		c0-0.4819946-0.0472412-0.8033295-0.1512146-0.9639893c-0.1039429-0.1512146-0.2079163-0.2268219-0.3118591-0.2268219
		c-0.1039734,0-0.2079468,0.0945053-0.3118896,0.2835236c-0.1039734,0.1890182-0.2457275,0.5292511-0.4158325,1.0112457
		L288.3930664,134.3956146z"/>
	<path class="st1" d="M232.1681061,102.1671829c1.3892822,0,2.8069153,0.0283508,4.2531128,0.0756073
		c1.4554443,0.0567017,2.8730774,0.1984711,4.2718048,0.444191c1.39888,0.2362747,2.7314606,0.6048584,3.9884338,1.1152039
		c1.2664032,0.4914474,2.3816071,1.200264,3.3457947,2.0982819c0.9639893,0.8978348,1.7295074,1.9468842,2.2776642,3.1565933
		c0.5576019,1.2097092,0.9734344,2.4668655,1.2475128,3.7805405s0.4441833,2.6556931,0.4914398,4.0166245
		c0.0472565,1.3611145,0.0756073,2.6558838,0.0756073,3.865593c0,1.200264-0.0283508,2.4855804-0.0756073,3.8277969
		c-0.0472565,1.3514709-0.2173615,2.6745987-0.4914398,3.9882736c-0.2740784,1.313858-0.6899109,2.5802765-1.2475128,3.789978
		c-0.5481567,1.2097168-1.3136749,2.2776642-2.2776642,3.2133026c-0.9641876,0.8980255-2.0793915,1.5973969-3.3457947,2.0982819
		c-1.2569733,0.5009003-2.5895538,0.8694916-3.9884338,1.1057587c-1.3987274,0.2457275-2.8258209,0.3969269-4.3001556,0.4441833
		c-1.4651031,0.0567169-2.8732758,0.0756073-4.224762,0.0756073c-1.3420105,0-2.7503815-0.0188904-4.215271-0.0756073
		c-1.4743347-0.0472565-2.9014282-0.1984558-4.3001556-0.4441833c-1.3989105-0.2362671-2.7314911-0.6048584-3.9979095-1.1057587
		c-1.256958-0.500885-2.3723602-1.2002563-3.3363495-2.0982819c-1.0017853-0.9356384-1.7767639-2.0035858-2.306015-3.2133026
		c-0.5386963-1.2097015-0.9450836-2.47612-1.219162-3.789978c-0.2740631-1.3136749-0.4441833-2.6368027-0.4914398-3.9882736
		c-0.0567017-1.3422165-0.0756073-2.627533-0.0756073-3.8277969c0-1.2097092,0.0189056-2.5044785,0.0756073-3.865593
		c0.0472565-1.3609314,0.2173767-2.7029495,0.4914398-4.0166245c0.2740784-1.3136749,0.6804657-2.5708313,1.219162-3.7805405
		c0.5292511-1.2097092,1.3042297-2.2587585,2.306015-3.1565933c0.9639893-0.8980179,2.0793915-1.6068344,3.3363495-2.0982819
		c1.2664185-0.5103455,2.598999-0.8789291,3.9979095-1.1152039c1.3987274-0.2457199,2.8163605-0.3874893,4.2718048-0.444191
		C229.3704681,102.1955338,230.7882843,102.1671829,232.1681061,102.1671829L232.1681061,102.1671829z M224.2480927,120.7198181
		c0,1.4459839,0.0756073,2.7314911,0.2268219,3.8561478c0.1606598,1.1246567,0.5292511,2.1358948,1.1152039,3.0337296
		c0.3780365,0.5859528,0.8033142,1.0585022,1.2758636,1.4176331c0.463089,0.3685913,0.9639893,0.6333923,1.4932404,0.8035126
		c0.5386963,0.1795654,1.124649,0.292984,1.7675018,0.3402405c0.6426544,0.0567017,1.3231201,0.075592,2.0413818,0.075592
		c0.7655334,0,1.4648895-0.0188904,2.1075592-0.075592c0.633194-0.0472565,1.2097015-0.160675,1.7295074-0.3402405
		c0.5200043-0.1701202,1.0019989-0.4349213,1.4556427-0.8035126c0.4441986-0.3591309,0.8789368-0.8316803,1.2947693-1.4176331
		c0.6521149-0.9734344,1.0395966-1.994133,1.1624603-3.0904312c0.1228638-1.0870438,0.1795654-2.3534622,0.1795654-3.7994461
		c0-0.8033218-0.0094452-1.5026855-0.0188904-2.126442c-0.0189056-0.623764-0.0661621-1.2004547-0.1323242-1.739151
		c-0.0661469-0.5387039-0.1984558-1.0395966-0.3874817-1.531044c-0.1890106-0.4819946-0.463089-0.9828949-0.8033295-1.5026932
		c-0.793869-1.1719055-1.7106018-1.9090729-2.750412-2.2020493c-1.0301514-0.2931671-2.3154755-0.4349289-3.8370667-0.4349289
		c-0.7560577,0-1.4459839,0.018898-2.0697327,0.0756073c-0.6239471,0.0472488-1.2098999,0.1703033-1.7580566,0.3593216
		c-0.5576019,0.1888275-1.0585022,0.463089-1.5026855,0.8033218c-0.4536438,0.3496857-0.8694763,0.8127747-1.2475128,1.3987274
		c-0.6521149,0.9734421-1.0395966,1.9846878-1.1624603,3.0337372
		C224.3047943,117.9129105,224.2480927,119.1982269,224.2480927,120.7198181L224.2480927,120.7198181z"/>
	<path class="st1" d="M183.6741638,105.9004669c0.3780212-0.8696671,0.8978271-1.5501328,1.549942-2.0510254
		c0.6615601-0.5009003,1.3609161-0.8789368,2.0980835-1.1435547c0.7468109-0.2551804,1.4934387-0.406395,2.2306061-0.4630966
		c0.7466125-0.0472565,1.389267-0.0756073,1.9468689-0.0756073c0.5481567,0,1.2002716,0.0283508,1.937439,0.0756073
		c0.7468109,0.0567017,1.4839783,0.2079163,2.2305908,0.4630966c0.7466278,0.2646179,1.4459839,0.6426544,2.0980988,1.1435547
		c0.6615601,0.5008926,1.1719055,1.1813583,1.5593872,2.0510254l13.9311676,32.946701H200.828064l-8.7613373-23.9870834
		c-0.0661621-0.1039581-0.1512146-0.2740707-0.2362823-0.5197983c-0.0850525-0.2362671-0.1984558-0.3591309-0.33078-0.3591309
		c-0.1417542,0-0.2551727,0.1228638-0.3402252,0.3591309c-0.0850525,0.2457275-0.1606598,0.4158401-0.2362671,0.5197983
		l-8.751709,23.9870834h-12.437912L183.6741638,105.9004669z"/>
	<path class="st1" d="M48.0969963,33.5326538c-0.5387001,0-1.0679512,0.0283508-1.5971985,0.0850563
		c-0.5387001,0.0568962-1.0395966,0.3309708-1.5121384,0.8035164c-0.4725456,0.4725418-0.7371712,0.9734383-0.7940636,1.5026855
		c-0.0661583,0.5292511-0.0945091,1.096302-0.0945091,1.6917076V80.731842H24.0532112V27.5880527
		c0-1.0114326,0.1417637-2.0604801,0.444191-3.1567822c0.2929783-1.0868511,0.9450874-2.1358986,1.9470711-3.1473312
		c1.4176311-1.4176311,2.9581242-2.2209549,4.6120262-2.3910713c1.6540909-0.1795673,3.2229385-0.2646236,4.7067261-0.2646236
		h38.8633232c1.8240204,0,3.4873734,0.113409,4.9617081,0.3496819c1.4839783,0.2362709,2.8732605,1.0112438,4.1680298,2.3060131
		c1.0112381,1.0114326,1.663353,2.0604801,1.9563293,3.1473312c0.2929764,1.096302,0.4443817,2.1453495,0.4443817,3.1567822
		V80.731842H66.1014786V37.6156197c0-0.5387001-0.0283508-1.0868492-0.0850525-1.6444511
		c-0.0567093-0.5576019-0.33078-1.0774002-0.8033295-1.549942c-0.4725418-0.4725456-0.9545364-0.7466202-1.4554329-0.8035164
		c-0.5103455-0.0567055-1.0584984-0.0850563-1.6446152-0.0850563H48.0969963z"/>
	<path class="st1" d="M105.4089966,80.731842c-1.3042221,0-2.5897293-0.1039581-3.8561478-0.311882
		c-1.2758636-0.2079163-2.5044785-0.8127747-3.6860275-1.8145676c-1.4176331-1.1908112-2.2493134-2.4099731-2.4855804-3.6860275
		c-0.2362747-1.2758713-0.3496857-2.6462479-0.3496857-4.1205826V28.2023582c0-1.1815472,0.1417618-2.3912601,0.4347458-3.6387749
		c0.3024216-1.2380657,1.0395966-2.3910713,2.2209549-3.4592094c1.1815491-1.0584984,2.4574127-1.7389622,3.8183365-2.0413895
		c1.3609314-0.2929783,2.5991821-0.4347401,3.7238388-0.4347401h44.6283569v15.0839748h-30.6973648
		c-0.5954056,0-1.1719055,0.0661583-1.7295074,0.2175598c-0.5670547,0.1512146-1.0206985,0.3685837-1.3798294,0.6615601
		c-0.4727554,0.4158401-0.7468338,0.9167366-0.8413391,1.5121422c-0.0850601,0.5954056-0.1323166,1.096302-0.1323166,1.5121384
		v4.6972771h33.8919754V55.799675h-33.8919754v6.7386627c0,0.6521111,0.0945129,1.1624565,0.2646255,1.5123291
		c0.1795654,0.349678,0.3874893,0.6237564,0.6237564,0.8033218c0.4727631,0.4630966,1.0681686,0.7182693,1.7769775,0.7466202
		c0.7088165,0.0283508,1.3892822,0.0472565,2.0413895,0.0472565h30.3382263V80.731842H105.4089966z"/>
	<path class="st1" d="M190.7624969,47.3693047c1.2380676,0,2.4477844-0.0472565,3.6387787-0.1323128
		c1.181366-0.0850601,2.1831512-0.5765038,3.0148315-1.4648857c1.0679474-1.1815491,1.5971985-2.9866676,1.5971985-5.4060898
		c0-0.8318672-0.0945129-1.6918983-0.2646179-2.5802803c-0.1795654-0.888382-0.6804657-1.653904-1.512146-2.306015
		c-0.8316803-0.7088127-1.7862091-1.1246529-2.8825226-1.2380638c-1.0964813-0.12286-2.2305908-0.1795654-3.421402-0.1795654
		h-11.0862274c-0.8316803,0-1.4648895,0.1323128-1.9090729,0.3969345c-0.4441986,0.2740784-0.7844238,0.5765038-1.0206909,0.9356384
		c-0.2362823,0.3496819-0.3874969,0.7371674-0.4441986,1.1530075c-0.0567017,0.4158363-0.0850525,0.7938728-0.0850525,1.1530075
		v9.6686249H190.7624969z M156.3318329,80.731842V30.3382568c0-1.3042202,0.1512146-2.7502041,0.4441833-4.3475914
		c0.3024292-1.5971985,0.9828949-2.9864769,2.0415802-4.168026c0.6521149-0.774971,1.6539001-1.4932384,3.0148315-2.1737003
		c1.3609314-0.6804638,3.1095276-1.0206947,5.2359772-1.0206947h34.3361664c2.4855804,0,4.8484802,0.2457218,7.0977936,0.7466183
		c2.2493134,0.5103474,4.2341766,1.7011585,5.9447937,3.6009731c1.4837799,1.5310421,2.6178894,3.6196861,3.4212189,6.2472172
		c0.7940521,2.636795,1.1909943,6.1999626,1.1909943,10.6893196c0,1.0679474-0.0378113,2.4761276-0.132309,4.2150917
		c-0.0850677,1.7484093-0.3213348,3.5726204-0.7088165,5.4627953c-0.3874969,1.8901749-0.945282,3.723835-1.6824493,5.5005989
		s-1.7578583,3.2229385-3.062088,4.3475914c-1.4837799,1.2380638-3.2418365,2.1169968-5.2832184,2.6178932
		c-2.0413971,0.5008965-3.9128571,0.7560692-5.6329193,0.7560692h-26.1701965V80.731842H156.3318329z"/>
	<path class="st1" d="M281.9662781,18.6282444v46.6699371h12.0691528c0.4725342,0,0.9734497-0.0472488,1.5028992-0.1417618
		c0.5387268-0.0850601,1.011261-0.3685837,1.4270935-0.8411255c0.4725342-0.6523018,0.7088318-1.7769547,0.7088318-3.3741531
		V18.6282444h20.0458374v52.7848434c0,1.0112457-0.1417847,2.1453476-0.4441833,3.4212189
		c-0.2929993,1.2666092-0.9734497,2.4101639-2.0414124,3.4119568c-0.7655029,0.7088165-1.7674866,1.3042221-3.0150146,1.7767639
		c-1.2380676,0.4725418-2.6557007,0.7088165-4.2528992,0.7088165h-72.0462494c-1.8336945,0-3.3269348-0.2551727-4.4799347-0.756073
		c-1.1530151-0.5008926-2.0604858-1.0774002-2.7126007-1.7295074c-1.1152039-1.0017929-1.8334656-2.1169968-2.1264343-3.3268967
		c-0.292984-1.2097168-0.4441986-2.3816223-0.4441986-3.506279V18.6282444h20.0553284v42.3128967
		c0,1.5971985,0.2362671,2.7218513,0.7088165,3.3741531c0.4158325,0.4725418,0.888382,0.7560654,1.4178162,0.8411255
		c0.5292511,0.0945129,1.0395966,0.1417618,1.512146,0.1417618h12.0596771V18.6282444H281.9662781z"/>
	<path class="st1" d="M373.7940369,80.731842l0.8883667-36.462616c0-0.5954056-0.0283508-1.1246529-0.0850525-1.5971985
		c-0.0661621-0.4819946-0.33078-0.7182655-0.8033142-0.7182655c-0.2929993,0-0.5861511,0.2551727-0.8883972,0.7560692
		c-0.2931519,0.5008965-0.7657166,1.2569656-1.4178162,2.2682114L353.8330078,75.136734
		c-0.4158325,0.7184525-0.9450684,1.4556198-1.5971985,2.2211456c-0.6520996,0.774971-1.4932251,1.4554291-2.5328369,2.0413895
		c-1.0303345,0.5954056-2.3061829,1.0774002-3.8088684,1.4648819c-1.512146,0.3874893-3.3269043,0.5765076-5.4627991,0.5765076
		c-3.0717468,0-5.5100708-0.4347458-7.3151855-1.2853241c-1.8052979-0.8600311-3.1945801-1.9846802-4.1680298-3.3739624
		c-0.9828796-1.3894653-1.6160889-2.9677658-1.9090576-4.7445297c-0.3024292-1.7767639-0.4441833-3.6104202-0.4441833-5.5005951
		V18.6282444h20.4049988l-0.8883972,35.574234v0.9734383c0,0.4158401,0.0472717,0.878933,0.1323242,1.3798294
		c0.0945129,0.5008965,0.3969421,0.7560692,0.9356384,0.7560692c0.2929688,0,0.5575867-0.1984673,0.7938843-0.5765038
		c0.2362671-0.3874855,0.5670471-0.9356346,0.9736023-1.6444511l17.1348267-29.9035187
		c0.9356384-1.7106075,2.0037842-3.0620823,3.1851501-4.0357113c1.1813354-0.9734402,2.3816223-1.7011585,3.600769-2.1737022
		c1.2098999-0.4725437,2.3912659-0.765522,3.544281-0.888382c1.1529846-0.1134109,2.1736755-0.1701164,3.0620728-0.1701164
		c3.5537109,0,6.313385,0.5576019,8.2982483,1.6822567c1.9752197,1.1246529,3.4401245,2.4857693,4.3854065,4.0829678
		c0.9450684,1.5971966,1.5215759,3.2794533,1.7294922,5.056406c0.2079163,1.7767658,0.3118896,3.2794533,0.3118896,4.5175209
		V80.731842H373.7940369z"/>
	<path class="st1" d="M450.2727661,80.731842l0.8885803-36.462616c0-0.5954056-0.0285339-1.1246529-0.0850525-1.5971985
		c-0.0663452-0.4819946-0.3309631-0.7182655-0.8035278-0.7182655c-0.2929688,0-0.5859375,0.2551727-0.8883667,0.7560692
		c-0.2929688,0.5008965-0.7655334,1.2569656-1.4176331,2.2682114L430.3119507,75.136734
		c-0.4158325,0.7184525-0.9450684,1.4556198-1.5971985,2.2211456c-0.6520996,0.774971-1.4934082,1.4554291-2.53302,2.0413895
		c-1.0301514,0.5954056-2.3059998,1.0774002-3.8086853,1.4648819c-1.5122986,0.3874893-3.3268738,0.5765076-5.4627686,0.5765076
		c-3.0717468,0-5.5101013-0.4347458-7.3152161-1.2853241c-1.8052979-0.8600311-3.1945801-1.9846802-4.1679993-3.3739624
		c-0.9829102-1.3894653-1.6161194-2.9677658-1.9092712-4.7445297c-0.2927856-1.7767639-0.4442139-3.6104202-0.4442139-5.5005951
		V18.6282444h20.4052124l-0.8883972,35.574234c0,0.7655182,0.0283508,1.4743347,0.0945129,2.1264458
		c0.0567017,0.6521111,0.3780518,0.9828911,0.9734497,0.9828911c0.2929688,0,0.5575867-0.1984673,0.7938843-0.5765038
		c0.2362671-0.3874855,0.5670471-0.9356346,0.9828796-1.6444511l17.1255493-29.9035187
		c0.9450989-1.7106075,2.0036011-3.0620823,3.1851501-4.0357113c1.1907959-0.9734402,2.3816223-1.7011585,3.600769-2.1737022
		c1.2097168-0.4725437,2.3912659-0.765522,3.544281-0.888382c1.1529846-0.1134109,2.1737061-0.1701164,3.0620728-0.1701164
		c3.5537109,0,6.313385,0.5576019,8.2982483,1.6822567c1.9752197,1.1246529,3.4401245,2.4857693,4.3851929,4.0829678
		c0.9547424,1.5971966,1.53125,3.2794533,1.7297058,5.056406c0.2079163,1.7767658,0.3118896,3.2794533,0.3118896,4.5175209
		V80.731842H450.2727661z"/>
	<path class="st2" d="M432.0887146,0h4.5838623c2.4290771,0,4.4137573,1.984684,4.4137573,4.4231992v4.574224
		c0,2.4290638-1.9846802,4.4137478-4.4137573,4.4137478h-4.5838623c-2.4288635,0-4.4135437-1.984684-4.4135437-4.4137478v-4.574224
		C427.6751709,1.984684,429.6598511,0,432.0887146,0L432.0887146,0z"/>
	<rect y="177.9562225" class="st0" width="98.9538574" height="24.0437851"/>
	<rect x="98.9444122" y="177.9562225" class="st3" width="98.9536972" height="24.0437851"/>
	<rect x="197.8886566" y="177.9562225" class="st4" width="98.9539108" height="24.0437851"/>
	<rect x="296.8330994" y="177.9562225" class="st5" width="98.9536667" height="24.0437851"/>
	<rect x="395.7773132" y="177.9562225" class="st6" width="98.9538803" height="24.0437851"/>
</g>
</svg>
